<svg xmlns="http://www.w3.org/2000/svg" width="900" height="710" viewBox="0 0 900 710">
<rect width="900" height="710" fill="#121212"/>
<text x="48" y="52" font-family="monospace" font-size="24" font-weight="bold" fill="#eaeaea">crimsongold.nvim</text>
<text x="48" y="76" font-family="monospace" font-size="14" fill="#DBB42C">crimson &amp; gold palette</text>
<rect x="48" y="92" width="46" height="32" rx="6" fill="#121212"/>
<text x="108" y="112" font-family="monospace" font-size="13" fill="#eaeaea">Background</text>
<text x="108" y="125" font-family="monospace" font-size="11" fill="#8a8a8d">#121212</text>
<rect x="470" y="92" width="46" height="32" rx="6" fill="#DBB42C"/>
<text x="530" y="112" font-family="monospace" font-size="13" fill="#eaeaea">Gold</text>
<text x="530" y="125" font-family="monospace" font-size="11" fill="#8a8a8d">#DBB42C</text>
<rect x="48" y="146" width="46" height="32" rx="6" fill="#0c0c0c"/>
<text x="108" y="166" font-family="monospace" font-size="13" fill="#eaeaea">Dark background</text>
<text x="108" y="179" font-family="monospace" font-size="11" fill="#8a8a8d">#0c0c0c</text>
<rect x="470" y="146" width="46" height="32" rx="6" fill="#baa007"/>
<text x="530" y="166" font-family="monospace" font-size="13" fill="#eaeaea">Gold dim</text>
<text x="530" y="179" font-family="monospace" font-size="11" fill="#8a8a8d">#baa007</text>
<rect x="48" y="200" width="46" height="32" rx="6" fill="#0C0101"/>
<text x="108" y="220" font-family="monospace" font-size="13" fill="#eaeaea">Deeper background</text>
<text x="108" y="233" font-family="monospace" font-size="11" fill="#8a8a8d">#0C0101</text>
<rect x="470" y="200" width="46" height="32" rx="6" fill="#FFC107"/>
<text x="530" y="220" font-family="monospace" font-size="13" fill="#eaeaea">Gold bright</text>
<text x="530" y="233" font-family="monospace" font-size="11" fill="#8a8a8d">#FFC107</text>
<rect x="48" y="254" width="46" height="32" rx="6" fill="#250101"/>
<text x="108" y="274" font-family="monospace" font-size="13" fill="#eaeaea">Lighter background</text>
<text x="108" y="287" font-family="monospace" font-size="11" fill="#8a8a8d">#250101</text>
<rect x="470" y="254" width="46" height="32" rx="6" fill="#eac027"/>
<text x="530" y="274" font-family="monospace" font-size="13" fill="#eaeaea">Orange</text>
<text x="530" y="287" font-family="monospace" font-size="11" fill="#8a8a8d">#eac027</text>
<rect x="48" y="308" width="46" height="32" rx="6" fill="#bebebe"/>
<text x="108" y="328" font-family="monospace" font-size="13" fill="#eaeaea">Foreground</text>
<text x="108" y="341" font-family="monospace" font-size="11" fill="#8a8a8d">#bebebe</text>
<rect x="470" y="308" width="46" height="32" rx="6" fill="#e68e0d"/>
<text x="530" y="328" font-family="monospace" font-size="13" fill="#eaeaea">Blue</text>
<text x="530" y="341" font-family="monospace" font-size="11" fill="#8a8a8d">#e68e0d</text>
<rect x="48" y="362" width="46" height="32" rx="6" fill="#eaeaea"/>
<text x="108" y="382" font-family="monospace" font-size="13" fill="#eaeaea">Bright foreground</text>
<text x="108" y="395" font-family="monospace" font-size="11" fill="#8a8a8d">#eaeaea</text>
<rect x="470" y="362" width="46" height="32" rx="6" fill="#f59e0b"/>
<text x="530" y="382" font-family="monospace" font-size="13" fill="#eaeaea">Blue bright</text>
<text x="530" y="395" font-family="monospace" font-size="11" fill="#8a8a8d">#f59e0b</text>
<rect x="48" y="416" width="46" height="32" rx="6" fill="#8a8a8d"/>
<text x="108" y="436" font-family="monospace" font-size="13" fill="#eaeaea">Muted</text>
<text x="108" y="449" font-family="monospace" font-size="11" fill="#8a8a8d">#8a8a8d</text>
<rect x="470" y="416" width="46" height="32" rx="6" fill="#EE3333"/>
<text x="530" y="436" font-family="monospace" font-size="13" fill="#eaeaea">Red</text>
<text x="530" y="449" font-family="monospace" font-size="11" fill="#8a8a8d">#EE3333</text>
<rect x="48" y="470" width="46" height="32" rx="6" fill="#444444"/>
<text x="108" y="490" font-family="monospace" font-size="13" fill="#eaeaea">Faint</text>
<text x="108" y="503" font-family="monospace" font-size="11" fill="#8a8a8d">#444444</text>
<rect x="470" y="470" width="46" height="32" rx="6" fill="#FF3333"/>
<text x="530" y="490" font-family="monospace" font-size="13" fill="#eaeaea">Red bright</text>
<text x="530" y="503" font-family="monospace" font-size="11" fill="#8a8a8d">#FF3333</text>
<rect x="48" y="524" width="46" height="32" rx="6" fill="#770000"/>
<text x="108" y="544" font-family="monospace" font-size="13" fill="#eaeaea">Selection</text>
<text x="108" y="557" font-family="monospace" font-size="11" fill="#8a8a8d">#770000</text>
<rect x="470" y="524" width="46" height="32" rx="6" fill="#b91c1c"/>
<text x="530" y="544" font-family="monospace" font-size="13" fill="#eaeaea">Crimson</text>
<text x="530" y="557" font-family="monospace" font-size="11" fill="#8a8a8d">#b91c1c</text>
<rect x="48" y="578" width="46" height="32" rx="6" fill="#1c1c1c"/>
<text x="108" y="598" font-family="monospace" font-size="13" fill="#eaeaea">Cursor line</text>
<text x="108" y="611" font-family="monospace" font-size="11" fill="#8a8a8d">#1c1c1c</text>
<rect x="470" y="578" width="46" height="32" rx="6" fill="#870000"/>
<text x="530" y="598" font-family="monospace" font-size="13" fill="#eaeaea">Crimson deep</text>
<text x="530" y="611" font-family="monospace" font-size="11" fill="#8a8a8d">#870000</text>
<rect x="48" y="632" width="46" height="32" rx="6" fill="#D35F5F"/>
<text x="108" y="652" font-family="monospace" font-size="13" fill="#eaeaea">Rose</text>
<text x="108" y="665" font-family="monospace" font-size="11" fill="#8a8a8d">#D35F5F</text>
<rect x="470" y="632" width="46" height="32" rx="6" fill="#EE0000"/>
<text x="530" y="652" font-family="monospace" font-size="13" fill="#eaeaea">Cyan</text>
<text x="530" y="665" font-family="monospace" font-size="11" fill="#8a8a8d">#EE0000</text>
</svg>